<?xml version="1.0" standalone="no"?><!DOCTYPE svg PUBLIC "-//W3C//DTD SVG 1.1//EN" "http://www.w3.org/Graphics/SVG/1.1/DTD/svg11.dtd" ><svg xmlns="http://www.w3.org/2000/svg"><metadata></metadata><defs><font id="FontForge 2.0 : PingFangHK-Regular-Proportional : 13-2-2017" horiz-adv-x="1000"><font-face font-family="" font-weight="400" font-stretch="normal" units-per-em="1000" panose-1="2 0 5 3 0 0 0 0 0 0" ascent="952" descent="-212" x-height="0" bbox="35 -107 966 827" underline-thickness="50" underline-position="-125" unicode-range="U+4e00-81ea" /><missing-glyph horiz-adv-x="1000"  /><glyph glyph-name="Identity.1246" unicode="&#x4e00;" d="M50 403 L949 403 L949 331 L50 331 L50 403 Z" /><glyph glyph-name="Identity.1286" unicode="&#x4e3b;" d="M464 576 L92 576 L92 647 L470 647 Q445 724 408 800 L478 819 Q514 736 536 662 L497 647 L909 647 L909 576 L537 576 L537 340 L861 340 L861 273 L537 273 L537 5 L944 5 L944 -66 L57 -66 L57 5 L464 5 L464 273 L140 273 L140 340 L464 340 L464 576 Z" /><glyph glyph-name="Identity.1294" unicode="&#x4e49;" d="M421 817 Q513 712 587 579 L522 546 Q445 683 353 786 L421 817 ZM769 770 L840 754 Q772 403 563 186 Q732 47 955 -30 L910 -97 Q681 -11 509 134 Q341 -16 93 -98 L53 -33 Q289 43 452 185 Q257 372 145 642 L211 679 Q316 413 505 236 Q706 444 769 770 Z" /><glyph glyph-name="Identity.1322" unicode="&#x4e8b;" d="M168 636 L464 636 L464 698 L72 698 L72 760 L464 760 L464 820 L536 820 L536 760 L928 760 L928 698 L536 698 L536 636 L832 636 L832 441 L536 441 L536 379 L846 379 L846 244 L955 244 L955 185 L846 185 L846 54 L536 54 L536 -12 Q536 -96 447 -96 L324 -96 L309 -28 Q376 -33 423 -33 Q464 -33 464 5 L464 54 L135 54 L135 112 L464 112 L464 185 L45 185 L45 244 L464 244 L464 321 L135 321 L135 379 L464 379 L464 441 L168 441 L168 636 ZM760 496 L760 581 L536 581 L536 496 L760 496 ZM464 496 L464 581 L240 581 L240 496 L464 496 ZM536 321 L536 244 L777 244 L777 321 L536 321 ZM777 185 L536 185 L536 112 L777 112 L777 185 Z" /><glyph glyph-name="Identity.1721" unicode="&#x524d;" d="M675 824 L745 800 Q715 742 677 692 L947 692 L947 622 L52 622 L52 692 L326 692 Q295 756 261 805 L337 818 Q370 762 403 692 L598 692 Q643 757 675 824 ZM399 -94 L320 -94 L301 -23 L376 -26 Q415 -26 415 24 L415 117 L192 117 L192 -102 L122 -102 L122 541 L485 541 L485 8 Q485 -94 399 -94 ZM192 181 L415 181 L415 295 L192 295 L192 181 ZM192 359 L415 359 L415 474 L192 474 L192 359 ZM788 -91 L655 -91 L640 -22 Q710 -27 763 -27 Q805 -27 805 19 L805 569 L877 569 L877 1 Q877 -91 788 -91 ZM597 494 L667 494 L667 63 L597 63 L597 494 Z" /><glyph glyph-name="Identity.1870" unicode="&#x53d1;" d="M116 510 L195 788 L266 776 L209 579 L384 579 Q414 697 432 824 L505 815 Q487 697 458 579 L926 579 L926 510 L439 510 Q418 439 401 396 L810 396 L810 334 Q769 204 647 100 Q768 28 943 -32 L906 -99 Q714 -28 588 54 Q467 -31 283 -103 L245 -36 Q412 25 525 99 Q409 188 359 294 Q250 58 78 -82 L41 -16 Q259 175 364 510 L116 510 ZM413 330 Q464 228 584 141 Q695 228 737 330 L413 330 ZM673 816 Q778 736 852 651 L801 600 Q740 677 625 769 L673 816 Z" /><glyph glyph-name="Identity.2573" unicode="&#x5b66;" d="M922 614 L922 390 L851 390 L851 545 L148 545 L148 390 L78 390 L78 614 L651 614 Q716 709 765 823 L838 796 Q786 689 729 614 L922 614 ZM231 460 L770 460 L770 396 Q668 331 549 273 L549 222 L930 222 L930 154 L549 154 L549 -15 Q549 -96 464 -96 L337 -96 L320 -30 Q392 -32 439 -32 Q476 -32 476 10 L476 154 L71 154 L71 222 L476 222 L476 305 Q602 360 667 396 L231 396 L231 460 ZM220 808 Q279 729 323 651 L261 620 Q209 709 155 776 L220 808 ZM462 827 Q514 749 557 662 L493 630 Q448 723 397 795 L462 827 Z" /><glyph glyph-name="Identity.2592" unicode="&#x5b8c;" d="M923 710 L923 486 L850 486 L850 640 L148 640 L148 486 L75 486 L75 710 L459 710 Q439 768 421 803 L502 817 Q525 761 540 710 L923 710 ZM218 524 L778 524 L778 454 L218 454 L218 524 ZM65 336 L936 336 L936 267 L653 267 L653 30 Q653 -16 696 -16 L829 -16 Q855 -16 866 4 Q878 27 884 140 L952 118 Q943 -27 916 -57 Q891 -85 842 -85 L673 -85 Q581 -85 581 15 L581 267 L413 267 L413 260 Q409 114 333 23 Q257 -59 90 -105 L49 -41 Q212 1 278 71 Q337 142 342 260 L342 267 L65 267 L65 336 Z" /><glyph glyph-name="Identity.2785" unicode="&#x5de5;" d="M464 671 L121 671 L121 740 L882 740 L882 671 L538 671 L538 38 L947 38 L947 -31 L54 -31 L54 38 L464 38 L464 671 Z" /><glyph glyph-name="Identity.2895" unicode="&#x5f00;" d="M112 757 L891 757 L891 687 L724 687 L724 422 L943 422 L943 353 L724 353 L724 -90 L651 -90 L651 353 L362 353 Q348 198 304 97 Q247 -29 115 -98 L76 -36 Q198 33 246 147 Q277 232 289 353 L58 353 L58 422 L293 422 Q293 429 293.5 440.5 Q294 452 294 457 L294 687 L112 687 L112 757 ZM368 687 L368 457 Q368 451 367.5 439 Q367 427 367 422 L651 422 L651 687 L368 687 Z" /><glyph glyph-name="Identity.4478" unicode="&#x70ed;" d="M893 156 Q846 158 813 199 Q753 277 753 494 L753 617 L621 617 Q620 500 594 407 Q659 359 725 293 L685 232 Q635 283 570 338 Q520 221 426 146 L373 193 Q466 264 512 383 Q464 417 415 445 L453 501 Q500 473 532 451 Q549 527 551 617 L435 617 L435 687 L551 687 L551 818 L621 818 L621 687 L824 687 L824 494 Q824 322 855 256 Q867 227 879 227 Q890 227 899 263 Q908 302 911 377 L966 349 Q958 219 935 184 Q916 156 893 156 ZM62 691 L204 691 L204 821 L277 821 L277 691 L399 691 L399 621 L277 621 L277 469 Q332 484 395 504 L395 434 Q352 421 277 402 L277 243 Q277 156 193 156 L100 156 L84 225 Q132 220 168 220 Q204 220 204 261 L204 384 Q154 373 52 353 L35 421 Q108 431 204 452 L204 621 L62 621 L62 691 ZM175 124 L235 95 Q182 -19 108 -106 L49 -63 Q120 14 175 124 ZM389 99 Q422 7 445 -88 L372 -104 Q352 4 321 85 L389 99 ZM596 113 Q641 21 674 -86 L602 -102 Q571 14 528 98 L596 113 ZM791 136 Q878 27 928 -60 L869 -102 Q817 -8 733 99 L791 136 Z" /><glyph glyph-name="Identity.4541" unicode="&#x7231;" d="M915 571 L915 406 L841 406 L841 506 L161 506 L161 406 L87 406 L87 571 L239 571 Q225 620 206 665 L277 676 Q294 630 310 571 L474 571 Q458 628 438 673 L508 684 Q527 635 544 571 L672 571 Q710 633 738 705 L807 680 Q781 620 747 571 L915 571 ZM861 802 L897 739 Q598 693 119 693 L97 760 Q558 762 861 802 ZM353 481 L424 472 Q420 448 410 404 L839 404 L839 338 L392 338 Q374 282 364 256 L804 256 L804 202 Q733 106 633 38 Q769 -15 920 -32 L888 -97 Q714 -73 568 -2 Q434 -75 284 -102 L252 -38 Q393 -15 498 35 Q401 93 324 168 Q238 4 98 -89 L63 -27 Q245 103 319 338 L164 338 L164 404 L337 404 Q344 435 353 481 ZM378 194 Q466 119 562 70 Q655 128 718 194 L378 194 Z" /><glyph glyph-name="Identity.4564" unicode="&#x7269;" d="M502 818 L570 800 Q553 717 533 656 L921 656 Q921 155 906 38 Q890 -94 744 -94 Q723 -94 669 -91 L652 -26 Q716 -30 734 -30 Q826 -30 839 66 Q849 146 852 586 L784 586 Q751 334 693 190 Q623 32 488 -91 L444 -34 Q568 78 632 218 Q690 357 719 586 L641 586 Q581 260 413 111 L366 165 Q520 296 577 586 L508 586 Q468 491 417 428 L364 473 Q460 593 502 818 ZM140 538 Q122 457 100 392 L37 410 Q93 567 101 744 L164 739 Q161 672 152 608 L222 608 L222 816 L292 816 L292 608 L376 608 L376 538 L292 538 L292 298 Q333 317 372 338 L372 270 Q346 256 292 230 L292 -100 L222 -100 L222 200 Q137 167 65 144 L48 214 Q138 235 222 268 L222 538 L140 538 Z" /><glyph glyph-name="Identity.5266" unicode="&#x7aef;" d="M43 650 L174 650 Q152 734 128 793 L200 805 Q220 739 242 650 L359 650 L359 582 L43 582 L43 650 ZM125 523 Q156 354 182 129 L123 114 Q100 316 66 504 L125 523 ZM358 120 L358 51 Q227 0 59 -38 L41 33 Q131 48 214 72 Q249 287 266 536 L331 527 Q314 302 276 91 Q283 93 313 103.5 Q343 114 358 120 ZM833 623 L833 776 L901 776 L901 560 L425 560 L425 776 L494 776 L494 623 L627 623 L627 815 L697 815 L697 623 L833 623 ZM382 476 L951 476 L951 410 L688 410 Q678 363 659 314 L922 314 L922 -21 Q922 -96 859 -96 L813 -96 L796 -31 L837 -34 Q857 -34 857 -7 L857 250 L767 250 L767 -80 L706 -80 L706 250 L625 250 L625 -81 L564 -81 L564 250 L476 250 L476 -96 L411 -96 L411 314 L589 314 Q609 365 617 410 L382 410 L382 476 Z" /><glyph glyph-name="Identity.5647" unicode="&#x8005;" d="M146 713 L420 713 L420 819 L494 819 L494 713 L730 713 L730 646 L494 646 L494 527 L620 527 Q761 628 868 754 L923 714 Q832 606 734 527 L948 527 L948 459 L643 459 Q635 454 620.5 444.5 Q606 435 598 430 Q536 392 441 348 L819 348 L819 -102 L747 -102 L747 -57 L314 -57 L314 -102 L241 -102 L241 266 Q172 240 73 208 L43 275 Q296 334 512 459 L57 459 L57 527 L420 527 L420 646 L146 646 L146 713 ZM314 116 L314 7 L747 7 L747 116 L314 116 ZM747 180 L747 285 L314 285 L314 180 L747 180 Z" /><glyph glyph-name="Identity.5844" unicode="&#x81ea;" d="M836 698 L836 -99 L763 -99 L763 -37 L237 -37 L237 -99 L164 -99 L164 698 L378 698 Q413 762 427 820 L500 810 Q483 750 453 698 L836 698 ZM237 32 L763 32 L763 195 L237 195 L237 32 ZM237 261 L763 261 L763 414 L237 414 L237 261 ZM237 480 L763 480 L763 629 L237 629 L237 480 Z" /><glyph glyph-name="Identity.29541" unicode="&#x5207;" d="M602 682 L409 682 L409 751 L927 751 Q927 229 913 100 Q895 -76 746 -76 Q714 -76 638 -73 L620 -6 Q710 -10 736 -10 Q828 -10 843 130 Q852 220 855 682 L673 682 L673 580 Q667 111 359 -107 L299 -54 Q598 144 602 580 L602 682 ZM172 43 L151 113 Q177 130 177 166 L177 505 L55 505 L55 574 L177 574 L177 805 L251 805 L251 574 L438 574 L438 505 L251 505 L251 150 Q338 183 425 225 L442 161 Q331 93 172 43 Z" /><glyph glyph-name="Identity.32439" unicode="&#x7a0b;" d="M59 542 L205 542 L205 688 Q126 677 71 671 L57 739 Q245 755 391 802 L416 734 Q338 713 273 700 L273 542 L403 542 L403 475 L273 475 L273 420 Q341 353 416 266 L376 206 Q320 293 273 355 L273 -96 L205 -96 L205 353 Q155 211 69 90 L37 170 Q149 302 197 475 L59 475 L59 542 ZM436 206 L640 206 L640 329 Q568 322 437 313 L424 377 Q691 390 898 428 L920 367 Q822 349 710 337 L710 206 L918 206 L918 141 L710 141 L710 2 L954 2 L954 -63 L396 -63 L396 2 L640 2 L640 141 L436 141 L436 206 ZM471 780 L886 780 L886 491 L471 491 L471 780 ZM816 556 L816 716 L541 716 L541 556 L816 556 Z" /><glyph glyph-name="Identity.32837" unicode="&#x7f8e;" d="M96 716 L322 716 Q302 764 275 809 L349 821 Q376 768 395 716 L608 716 Q634 769 648 825 L723 815 Q708 762 681 716 L904 716 L904 650 L536 650 L536 554 L851 554 L851 492 L536 492 L536 394 L937 394 L937 328 L63 328 L63 394 L464 394 L464 492 L152 492 L152 554 L464 554 L464 650 L96 650 L96 716 ZM475 300 L546 292 Q540 254 531 220 L915 220 L915 154 L506 154 Q471 85 414 32 Q317 -55 70 -106 L40 -36 Q259 3 356 80 Q399 116 423 154 L86 154 L86 220 L455 220 Q470 262 475 300 ZM570 116 Q782 51 960 -45 L919 -107 Q726 0 532 59 L570 116 Z" /><glyph glyph-name="Identity.36226" unicode="&#x5e08;" d="M379 775 L948 775 L948 707 L699 707 L699 573 L915 573 L915 88 Q915 5 838 5 L768 5 L749 75 L815 71 Q846 71 846 104 L846 505 L699 505 L699 -100 L629 -100 L629 505 L481 505 L481 2 L412 2 L412 573 L629 573 L629 707 L379 707 L379 775 ZM249 816 L319 816 L319 394 Q315 55 137 -101 L84 -55 Q246 86 249 394 L249 816 ZM108 630 Q192 498 237 399 L180 360 Q132 467 50 595 L108 630 Z" /><glyph glyph-name="Identity.42274" unicode="&#x65b0;" d="M221 242 L55 242 L55 308 L235 308 L235 411 L72 411 L72 477 L153 477 Q134 543 105 600 L168 623 Q193 565 217 477 L323 477 Q352 552 373 625 L437 602 Q413 528 388 477 L467 477 L467 411 L304 411 L304 308 L486 308 L486 242 L304 242 L304 198 Q384 150 466 90 L428 33 Q354 101 304 138 L304 -99 L235 -99 L235 168 Q180 67 84 -20 L44 37 Q163 126 221 242 ZM893 805 L929 740 Q791 692 623 683 L623 500 L960 500 L960 431 L852 431 L852 -99 L781 -99 L781 431 L623 431 L623 310 Q615 54 511 -95 L459 -42 Q545 85 553 310 L553 742 Q741 745 893 805 ZM60 715 L239 715 Q223 766 202 807 L274 819 Q291 775 310 715 L479 715 L479 649 L60 649 L60 715 Z" /></font>
</defs>
</svg>
